<?xml version="1.0" encoding="UTF-8" standalone="no"?>
<svg width="119px" height="35px" viewBox="0 0 119 35" version="1.1" xmlns="http://www.w3.org/2000/svg" xmlns:xlink="http://www.w3.org/1999/xlink">
    <!-- Generator: Sketch 3.6.1 (26313) - http://www.bohemiancoding.com/sketch -->
    <title>Group</title>
    <desc>Created with Sketch.</desc>
    <defs>
        <path id="path-1" d="M118.941597,34.002298 L118.941597,0.114115316 L0.107005922,0.114115316 L0.107005922,34.002298 L118.941597,34.002298 L118.941597,34.002298 Z"></path>
        <path id="path-3" d="M0.226147238,35.7259355 L119.811193,35.7259355 L119.811193,0.214433608 L0.226147238,0.214433608 L0.226147238,35.7259355 Z"></path>
    </defs>
    <g id="Page-1" stroke="none" stroke-width="1" fill="none" fill-rule="evenodd">
        <g id="Group" transform="translate(-1.000000, -1.000000)">
            <path d="M47.7756339,27.0742686 L51.9009953,33.3813173 L51.9192568,33.3813173 L51.9192568,27.0742686 L52.9088566,27.0742686 L52.9088566,34.8513488 L51.7679472,34.8513488 L47.6782392,28.6099805 L47.6573689,28.6099805 L47.6573689,34.8513488 L46.6668995,34.8513488 L46.6668995,27.0742686 L47.7756339,27.0742686 Z" id="Fill-1" fill="#EC272A"></path>
            <path d="M59.8960571,27.0742686 L59.8960571,27.9445341 L55.5359049,27.9445341 L55.5359049,30.4231058 L59.6012642,30.4231058 L59.6012642,31.2925071 L55.5359049,31.2925071 L55.5359049,33.9819475 L59.9299714,33.9819475 L59.9299714,34.8513488 L54.4932598,34.8513488 L54.4932598,27.0742686 L59.8960571,27.0742686 Z" id="Fill-2" fill="#EC272A"></path>
            <path d="M60.5804289,27.9445341 L60.5804289,27.0742686 L66.8371691,27.0742686 L66.8371691,27.9445341 L64.2292519,27.9445341 L64.2292519,34.8513488 L63.1874764,34.8513488 L63.1874764,27.9445341 L60.5804289,27.9445341 Z" id="Fill-3" fill="#EC272A"></path>
            <path d="M73.3704407,34.8513488 L71.5842914,28.3152828 L71.5625515,28.3152828 L69.7555319,34.8513488 L68.6711462,34.8513488 L66.667598,27.0742686 L67.7293742,27.0742686 L69.2616016,33.5437899 L69.2842111,33.5437899 L71.0364462,27.0742686 L72.1660508,27.0742686 L73.8965461,33.5437899 L73.918286,33.5437899 L75.5070371,27.0742686 L76.547943,27.0742686 L74.4548264,34.8513488 L73.3704407,34.8513488 Z" id="Fill-4" fill="#EC272A"></path>
            <g id="Group-34">
                <path d="M78.6147978,32.2746887 C78.7165405,32.655808 78.8782853,32.9989017 79.0974233,33.30397 C79.3156918,33.6099025 79.5974408,33.8536114 79.9409311,34.0394179 C80.2835517,34.2243601 80.6922616,34.3176954 81.1679304,34.3176954 C81.6435992,34.3176954 82.05057,34.2243601 82.3949298,34.0394179 C82.7375505,33.8536114 83.0184298,33.6099025 83.2375679,33.30397 C83.456706,32.9989017 83.6175812,32.655808 83.7193239,32.2746887 C83.8228058,31.8935694 83.8732423,31.5072648 83.8732423,31.1140465 C83.8732423,30.7208282 83.8228058,30.3345236 83.7193239,29.9534044 C83.6175812,29.5731493 83.456706,29.2300555 83.2375679,28.924123 C83.0184298,28.6190548 82.7375505,28.3744816 82.3949298,28.187811 C82.05057,28.0037329 81.6435992,27.912126 81.1679304,27.912126 C80.6922616,27.912126 80.2835517,28.0037329 79.9409311,28.187811 C79.5974408,28.3744816 79.3156918,28.6190548 79.0974233,28.924123 C78.8782853,29.2300555 78.7165405,29.5731493 78.6147978,29.9534044 C78.5139247,30.3345236 78.4634882,30.7208282 78.4634882,31.1140465 C78.4634882,31.5072648 78.5139247,31.8935694 78.6147978,32.2746887 L78.6147978,32.2746887 Z M77.6538947,29.5843841 C77.8112915,29.0943736 78.0469519,28.6605371 78.3608759,28.2837389 C78.6756695,27.9052123 79.0652483,27.6036009 79.5356995,27.3797689 C80.0018028,27.1533443 80.5470392,27.0409962 81.1679304,27.0409962 C81.7905609,27.0409962 82.3314493,27.1533443 82.8019005,27.3797689 C83.2688734,27.6036009 83.6593218,27.9052123 83.9741154,28.2837389 C84.2880394,28.6605371 84.5245694,29.0943736 84.680227,29.5843841 C84.8376238,30.076123 84.9176266,30.5851463 84.9176266,31.1140465 C84.9176266,31.6446752 84.8376238,32.1562911 84.680227,32.6463016 C84.5245694,33.1363121 84.2880394,33.5701485 83.9741154,33.947811 C83.6593218,34.3246092 83.2688734,34.6253563 82.8019005,34.8457314 C82.3314493,35.0669707 81.7905609,35.1793188 81.1679304,35.1793188 C80.5470392,35.1793188 80.0018028,35.0669707 79.5356995,34.8457314 C79.0652483,34.6253563 78.6756695,34.3246092 78.3608759,33.947811 C78.0469519,33.5701485 77.8112915,33.1363121 77.6538947,32.6463016 C77.4973675,32.1562911 77.4199735,31.6446752 77.4199735,31.1140465 C77.4199735,30.5851463 77.4973675,30.076123 77.6538947,29.5843841 L77.6538947,29.5843841 Z" id="Fill-5" fill="#EC272A"></path>
                <path d="M90.0790242,30.7564339 C90.2981623,30.7201368 90.4886038,30.6492711 90.6538269,30.5438368 C90.8190501,30.4384024 90.9512286,30.2975352 91.0486233,30.1186425 C91.1486268,29.9397497 91.1973242,29.7090041 91.1973242,29.4264054 C91.1973242,29.0340513 91.0868855,28.7134272 90.8677474,28.4671256 C90.6486093,28.2199598 90.2946839,28.0963769 89.8051016,28.0963769 L87.2189244,28.0963769 L87.2189244,30.8117437 L89.3885653,30.8117437 C89.6285737,30.8117437 89.8590166,30.792731 90.0790242,30.7564339 M89.8590166,27.2261113 C90.6077384,27.2261113 91.1894978,27.4075967 91.6103821,27.7705674 C92.0303967,28.1335382 92.2390997,28.6313266 92.2390997,29.2639328 C92.2390997,29.7349305 92.133009,30.1497542 91.9182189,30.504947 C91.70082,30.8610041 91.3564602,31.1029845 90.881661,31.2352096 L90.881661,31.2576792 C91.1060166,31.3017542 91.2903709,31.3717557 91.4338542,31.4745974 C91.5747286,31.5765749 91.6895153,31.6984294 91.773866,31.8392966 C91.8582168,31.9818923 91.9199581,32.1383154 91.9590899,32.3137512 C91.9990913,32.4874587 92.0303967,32.668944 92.0530062,32.8556147 C92.0669197,33.0457422 92.0782245,33.2384624 92.0851813,33.4337752 C92.092138,33.6290881 92.1095299,33.8235367 92.1408354,34.0119358 C92.1704016,34.2003349 92.2121422,34.3792276 92.2669267,34.5503424 C92.3208417,34.7214572 92.401714,34.8718308 92.5112831,35.0031916 L91.3521122,35.0031916 C91.2790661,34.9228195 91.2294992,34.8147925 91.2042809,34.6756537 C91.1764539,34.5373791 91.1616707,34.3844129 91.1529748,34.2115697 C91.1451484,34.0439118 91.1399309,33.8589695 91.1329741,33.6627925 C91.1242781,33.4666155 91.1025382,33.2738953 91.0668848,33.0854962 C91.036449,32.8979613 90.999926,32.7182044 90.9555766,32.5470896 C90.9129664,32.3759748 90.8442684,32.2264654 90.7486128,32.0994257 C90.6529573,31.9732501 90.5294748,31.8721368 90.3764259,31.7960858 C90.2225075,31.7183064 90.017283,31.6802809 89.7616218,31.6802809 L87.2189244,31.6802809 L87.2189244,35.0031916 L86.1745401,35.0031916 L86.1745401,27.2261113 L89.8590166,27.2261113" id="Fill-7" fill="#EC272A"></path>
                <path d="M94.7208385,27.2259385 L94.7208385,31.1028117 L98.6861944,27.2259385 L100.033198,27.2259385 L96.7356915,30.3613143 L100.165376,35.0030188 L98.8496784,35.0030188 L96.0226231,31.0725641 L94.7208385,32.2807382 L94.7208385,35.0030188 L93.6764542,35.0030188 L93.6764542,27.2259385 L94.7208385,27.2259385 Z" id="Fill-9" fill="#EC272A"></path>
                <path d="M104.912673,28.2871094 C104.565704,28.0373509 104.12308,27.9120396 103.581322,27.9120396 C103.363053,27.9120396 103.146524,27.9345092 102.935212,27.97772 C102.72477,28.0209308 102.536068,28.093525 102.370845,28.1955025 C102.20823,28.2966158 102.076052,28.4331619 101.976918,28.6034125 C101.877784,28.7745272 101.829087,28.9862602 101.829087,29.2403397 C101.829087,29.4797275 101.900394,29.6750404 102.042138,29.8236855 C102.185621,29.9731949 102.374323,30.0941851 102.610853,30.1875205 C102.848253,30.28172 103.116088,30.3612279 103.41349,30.4234515 C103.712631,30.4839466 104.016989,30.5513554 104.326565,30.6248138 C104.636141,30.697408 104.941369,30.7829653 105.238771,30.8806218 C105.538782,30.9782782 105.805747,31.109639 106.042277,31.2781611 C106.278807,31.4440906 106.469249,31.6549593 106.611862,31.9099031 C106.753607,32.165711 106.824044,32.4837425 106.824044,32.8683187 C106.824044,33.2831424 106.730997,33.6366068 106.546643,33.9313044 C106.35881,34.2242737 106.120541,34.4653899 105.828357,34.649468 C105.537042,34.8344102 105.208335,34.9700921 104.848323,35.0539211 C104.485701,35.1368858 104.127428,35.1792324 103.770024,35.1792324 C103.332618,35.1792324 102.916951,35.1239226 102.525633,35.0133029 C102.136054,34.9070044 101.791694,34.7402107 101.496032,34.5189713 C101.202108,34.2968678 100.967318,34.013405 100.795138,33.6703112 C100.624697,33.3246248 100.537737,32.9167148 100.537737,32.4439886 L101.528207,32.4439886 C101.528207,32.7715265 101.592557,33.0523967 101.719518,33.2891919 C101.846479,33.5251229 102.014311,33.7187073 102.223014,33.8708093 C102.429977,34.0229113 102.673464,34.1352594 102.949126,34.2069893 C103.226527,34.2804477 103.510885,34.317609 103.803069,34.317609 C104.034381,34.317609 104.270911,34.2960036 104.507441,34.2519286 C104.744841,34.2069893 104.957022,34.133531 105.146594,34.0289608 C105.337905,33.9235265 105.489215,33.7792024 105.60661,33.5985812 C105.724875,33.4170959 105.781399,33.1837575 105.781399,32.9002947 C105.781399,32.6323877 105.710092,32.4154695 105.568348,32.2486758 C105.425734,32.0810179 105.236162,31.9462002 104.998763,31.8390374 C104.762233,31.7344672 104.494397,31.6471814 104.196996,31.5823652 C103.898724,31.517549 103.593496,31.4510044 103.283051,31.3818671 C102.974344,31.3127298 102.669986,31.2332219 102.370845,31.1424792 C102.071704,31.0508723 101.804738,30.9316105 101.567338,30.7829653 C101.330808,30.633456 101.141237,30.4416 100.999493,30.205669 C100.856879,29.9706023 100.785572,29.6741761 100.785572,29.3181191 C100.785572,28.9249008 100.865575,28.5852639 101.02645,28.2992084 C101.188195,28.0122887 101.402985,27.7763577 101.669951,27.5914155 C101.936917,27.4064732 102.240405,27.2673344 102.579548,27.177456 C102.91869,27.0867133 103.268267,27.0409098 103.626541,27.0409098 C104.027424,27.0409098 104.400481,27.0875775 104.742232,27.1826413 C105.085722,27.2768408 105.386602,27.4263502 105.647481,27.6285767 C105.904881,27.8325317 106.110975,28.0874755 106.260546,28.3951364 C106.409247,28.7053899 106.491858,29.0726818 106.506641,29.5021971 L105.52139,29.5021971 C105.463996,28.9413209 105.259641,28.5385962 104.912673,28.2871094" id="Fill-11" fill="#EC272A"></path>
                <path d="M110.327905,33.001408 C110.624437,33.001408 110.884446,32.9858521 110.884446,32.6686848 C110.884446,32.3912714 110.648786,32.3558386 110.421822,32.3558386 L109.979197,32.3558386 L109.979197,33.001408 L110.327905,33.001408 Z M109.653969,32.0637335 L110.480954,32.0637335 C110.954014,32.0637335 111.208806,32.2633674 111.208806,32.6833764 C111.208806,33.0610389 110.958362,33.2364747 110.632264,33.2701791 L111.243589,34.1853839 L110.918361,34.1853839 L110.327905,33.2943772 L109.979197,33.2943772 L109.979197,34.1853839 L109.653969,34.1853839 L109.653969,32.0637335 Z M111.881873,33.113756 C111.881873,32.2720096 111.214893,31.5936 110.38269,31.5936 C109.551356,31.5936 108.882637,32.2720096 108.882637,33.113756 C108.882637,33.9546383 109.551356,34.6330479 110.38269,34.6330479 C111.214893,34.6330479 111.881873,33.9546383 111.881873,33.113756 L111.881873,33.113756 Z M110.38269,31.301495 C111.391421,31.301495 112.207971,32.1112654 112.207971,33.113756 C112.207971,34.1162467 111.391421,34.9286098 110.38269,34.9286098 C109.373959,34.9286098 108.557409,34.1162467 108.557409,33.113756 C108.557409,32.1112654 109.373959,31.301495 110.38269,31.301495 L110.38269,31.301495 Z" id="Fill-13" fill="#EC272A"></path>
                <g id="Group-17" transform="translate(0.869596, 0.864216)">
                    <mask id="mask-2" fill="white">
                        <use xlink:href="#path-1"></use>
                    </mask>
                    <g id="Clip-16"></g>
                    <path d="M81.0534917,5.94384036 L91.6112517,5.94384036 C115.558175,0.462117929 118.941771,14.8011907 118.941771,14.8011907 C118.111308,-3.51586857 102.563808,-2.50646422 81.0534917,5.94384036 M0.138492003,18.5311472 C-0.790236083,39.5851787 18.9461053,36.0954743 43.5191374,26.0489626 L34.6857854,26.0489626 C3.47078229,36.7695628 0.138492003,18.5311472 0.138492003,18.5311472" id="Fill-15" fill="#EC272A" mask="url(#mask-2)"></path>
                </g>
                <path d="M17.0151683,9.28965281 L17.0151683,11.722421 L13.7785336,11.722421 L13.7785336,24.0098449 L10.7914727,24.0098449 L10.7914727,11.722421 L7.55396836,11.722421 L7.55396836,9.28965281 L17.0151683,9.28965281 Z" id="Fill-18" fill="#EC272A"></path>
                <path d="M21.288535,15.7219265 L22.5337958,15.7219265 C23.9642806,15.7219265 24.7738741,15.1048762 24.7738741,13.5173113 C24.7738741,12.1553068 24.0468922,11.476033 22.6998886,11.476033 L21.288535,11.476033 L21.288535,15.7219265 Z M18.3006045,9.28956639 L23.8199277,9.28956639 C26.2678393,9.28956639 27.7609349,10.5677419 27.7609349,13.0834749 C27.7609349,15.0417884 26.9722117,16.3605821 25.2912834,16.7123181 L25.2912834,16.7529362 C27.3261371,17.0208432 27.6365827,18.1356819 27.6774537,21.2477239 C27.6991936,22.7946707 27.7818052,23.5992558 28.3426943,23.8870398 L28.3426943,24.0097584 L25.10519,24.0097584 C24.8156147,23.5992558 24.7530038,23.0409722 24.7321335,22.4636759 L24.6495219,19.6394179 C24.6086509,18.4856894 24.0903719,17.7848102 22.885982,17.7848102 L21.288535,17.7848102 L21.288535,24.0097584 L18.3006045,24.0097584 L18.3006045,9.28956639 L18.3006045,9.28956639 Z" id="Fill-20" fill="#EC272A"></path>
                <path d="M33.112687,18.4642569 L36.0171363,18.4642569 L34.5857819,11.8460903 L34.5440413,11.8460903 L33.112687,18.4642569 Z M32.7187602,9.28973923 L36.4119327,9.28973923 L40.3320696,24.0099313 L37.2206566,24.0099313 L36.5371544,20.8970251 L32.5935385,20.8970251 L31.9109059,24.0099313 L28.7977537,24.0099313 L32.7187602,9.28973923 Z" id="Fill-22" fill="#EC272A"></path>
                <path d="M44.814487,9.28965281 L48.4241782,19.3724615 L48.4650492,19.3724615 L48.4650492,9.28965281 L51.2034057,9.28965281 L51.2034057,24.0098449 L47.8024174,24.0098449 L44.1509855,13.7006116 L44.1075058,13.7006116 L44.1075058,24.0098449 L41.3708885,24.0098449 L41.3708885,9.28965281 L44.814487,9.28965281 Z" id="Fill-24" fill="#EC272A"></path>
                <path d="M55.6847796,19.4116969 L55.6847796,19.8463976 C55.6847796,21.2274149 56.079576,22.1141005 57.6552832,22.1141005 C58.5683586,22.1141005 59.4396934,21.5368042 59.4396934,20.300111 C59.4396934,18.9597119 58.7544521,18.4645161 56.7839485,17.7843781 C54.1290731,16.8769512 52.9038129,15.7845821 52.9038129,13.3302086 C52.9038129,10.4644681 54.6664832,8.99962191 57.4891905,8.99962191 C60.1440658,8.99962191 62.074568,10.1352018 62.074568,12.9594599 L62.074568,13.3716909 L59.2118593,13.3716909 C59.2118593,11.9906737 58.7344514,11.1860885 57.5926723,11.1860885 C56.2456688,11.1860885 55.8934826,12.0312918 55.8934826,12.8972363 C55.8934826,13.8055274 56.161318,14.3612183 57.4274492,14.8978965 L59.7292687,15.8874239 C61.9702165,16.8562101 62.5511064,17.9909257 62.5511064,19.7833098 C62.5511064,22.8979445 60.6414745,24.2997029 57.4065789,24.2997029 C54.0247217,24.2997029 52.6968492,22.7311508 52.6968492,20.0105986 L52.6968492,19.4116969 L55.6847796,19.4116969" id="Fill-26" fill="#EC272A"></path>
                <mask id="mask-4" fill="white">
                    <use xlink:href="#path-3"></use>
                </mask>
                <g id="Clip-29"></g>
                <path d="M64.1901201,24.0097584 L67.1789202,24.0097584 L67.1789202,9.28956639 L64.1901201,9.28956639 L64.1901201,24.0097584 Z" id="Fill-28" fill="#EC272A" mask="url(#mask-4)"></path>
                <path d="M78.0686918,9.28965281 L78.0686918,11.722421 L74.8329266,11.722421 L74.8329266,24.0098449 L71.8476049,24.0098449 L71.8476049,11.722421 L68.609231,11.722421 L68.609231,9.28965281 L78.0686918,9.28965281 Z" id="Fill-30" fill="#EC272A" mask="url(#mask-4)"></path>
                <path d="M79.5019592,24.0097584 L82.48902,24.0097584 L82.48902,9.28956639 L79.5019592,9.28956639 L79.5019592,24.0097584 Z" id="Fill-31" fill="#EC272A" mask="url(#mask-4)"></path>
                <path d="M89.4383062,22.1141869 C91.2018461,22.1141869 91.492291,20.6095868 91.492291,16.6497488 C91.492291,12.7115163 91.2018461,11.1861749 89.4383062,11.1861749 C87.675636,11.1861749 87.3843214,12.7115163 87.3843214,16.6497488 C87.3843214,20.6095868 87.675636,22.1141869 89.4383062,22.1141869 M89.4383062,8.99970833 C93.9202019,8.99970833 94.4793518,12.1765665 94.4793518,16.6497488 C94.4793518,21.1237953 93.9202019,24.2997893 89.4383062,24.2997893 C84.9572802,24.2997893 84.3981302,21.1237953 84.3981302,16.6497488 C84.3981302,12.1765665 84.9572802,8.99970833 89.4383062,8.99970833" id="Fill-32" fill="#EC272A" mask="url(#mask-4)"></path>
                <path d="M99.686838,9.28965281 L103.296529,19.3724615 L103.3374,19.3724615 L103.3374,9.28965281 L106.075757,9.28965281 L106.075757,24.0098449 L102.673899,24.0098449 L99.0215974,13.7006116 L98.9807264,13.7006116 L98.9807264,24.0098449 L96.2432395,24.0098449 L96.2432395,9.28965281 L99.686838,9.28965281 Z" id="Fill-33" fill="#EC272A" mask="url(#mask-4)"></path>
            </g>
        </g>
    </g>
</svg>